<svg xmlns="http://www.w3.org/2000/svg" width="502.771" height="321" viewBox="0 0 502.771 321">
  <g id="Group_15" data-name="Group 15" transform="translate(-1212.229 -103.5)">
    <path id="Path_19" data-name="Path 19" d="M457.746,0H45.025c-1.719,0-3.441,0-5.157.01-1.45.01-2.9.026-4.345.066a63.3,63.3,0,0,0-9.455.829A31.987,31.987,0,0,0,17.082,3.86,30.164,30.164,0,0,0,3.868,17.038,31.636,31.636,0,0,0,.908,26a62.377,62.377,0,0,0-.836,9.427C.033,36.874.017,38.318.007,39.76Q0,42.333,0,44.907V276.1c0,1.718,0,3.429.007,5.147.009,1.443.026,2.886.065,4.329A62.35,62.35,0,0,0,.908,295a31.628,31.628,0,0,0,2.96,8.966A30.162,30.162,0,0,0,17.082,317.14a31.859,31.859,0,0,0,8.987,2.959,63.785,63.785,0,0,0,9.455.829q2.171.049,4.345.059c1.716.013,3.438.013,5.157.013H457.746c1.716,0,3.438,0,5.153-.013q2.171-.01,4.348-.059a63.954,63.954,0,0,0,9.456-.829,31.887,31.887,0,0,0,8.984-2.959A30.161,30.161,0,0,0,498.9,303.962,31.44,31.44,0,0,0,501.86,295a62.339,62.339,0,0,0,.832-9.423q.059-2.165.066-4.329c.013-1.718.013-3.429.013-5.147V44.907c0-1.718,0-3.432-.013-5.146q-.01-2.164-.066-4.329A62.374,62.374,0,0,0,501.86,26a31.443,31.443,0,0,0-2.959-8.966A30.163,30.163,0,0,0,485.687,3.86,32.014,32.014,0,0,0,476.7.905a63.467,63.467,0,0,0-9.456-.829C465.794.036,464.347.02,462.9.01,461.184,0,459.462,0,457.746,0Z" transform="translate(1212.229 103.5)" fill="#fff"/>
    <g id="ms_vrt_pos" transform="translate(1299.104 143.783)">
      <rect id="Rectangle_4" data-name="Rectangle 4" width="329.02" height="270.435" fill="none"/>
      <g id="Group_5" data-name="Group 5" transform="translate(33.941 33.932)">
        <path id="Path_15" data-name="Path 15" d="M391.767,366.367V352.936a7.966,7.966,0,0,0-8.416-8.506,8.289,8.289,0,0,0-7.521,3.805,7.86,7.86,0,0,0-7.073-3.805,7.077,7.077,0,0,0-6.267,3.179v-2.641h-4.656v21.4h4.7V354.5a5,5,0,0,1,5.238-5.685c3.089,0,4.656,2.014,4.656,5.64v11.908h4.7V354.5a5.047,5.047,0,0,1,5.238-5.685c3.178,0,4.7,2.014,4.7,5.641v11.908ZM418,355.667v-10.7h-4.656v2.6a8.118,8.118,0,0,0-6.76-3.134,11.251,11.251,0,0,0,0,22.474,8.118,8.118,0,0,0,6.76-3.134v2.6H418Zm-17.325,0a6.419,6.419,0,1,1,1.745,4.846A6.479,6.479,0,0,1,400.676,355.667Zm116.95-11.262a12.061,12.061,0,0,1,4.592.861,11.2,11.2,0,0,1,3.653,2.369,10.846,10.846,0,0,1,2.413,3.564,11.887,11.887,0,0,1,0,8.938,10.833,10.833,0,0,1-2.413,3.565,11.2,11.2,0,0,1-3.653,2.368,12.679,12.679,0,0,1-9.184,0,11.074,11.074,0,0,1-3.643-2.368,10.937,10.937,0,0,1-2.4-3.565,11.9,11.9,0,0,1,0-8.938,10.945,10.945,0,0,1,2.4-3.564,11.081,11.081,0,0,1,3.643-2.368,12.061,12.061,0,0,1,4.592-.861Zm0,4.4a6.948,6.948,0,0,0-2.659.5,6.288,6.288,0,0,0-2.123,1.407,6.562,6.562,0,0,0-1.408,2.168,7.786,7.786,0,0,0,0,5.564,6.554,6.554,0,0,0,1.408,2.167,6.287,6.287,0,0,0,2.123,1.408,7.28,7.28,0,0,0,5.317,0,6.415,6.415,0,0,0,2.134-1.408,6.493,6.493,0,0,0,1.419-2.167,7.786,7.786,0,0,0,0-5.564,6.5,6.5,0,0,0-1.419-2.168,6.418,6.418,0,0,0-2.134-1.407,6.948,6.948,0,0,0-2.659-.5Zm-74.29,6.859c-.045-6.67-4.163-11.237-10.162-11.237a11.246,11.246,0,0,0,.313,22.474,13.007,13.007,0,0,0,8.774-3l-2.283-3.447a10.2,10.2,0,0,1-6.223,2.238,5.943,5.943,0,0,1-6.4-5.238h15.893C443.291,356.876,443.336,356.294,443.336,355.667Zm-15.937-1.88a5.509,5.509,0,0,1,5.686-5.193,5.315,5.315,0,0,1,5.417,5.193Zm35.545-3.357a13.793,13.793,0,0,0-6.67-1.836c-2.552,0-4.074.94-4.074,2.507,0,1.433,1.612,1.835,3.626,2.1l2.193.313c4.656.672,7.476,2.641,7.476,6.4,0,4.074-3.581,6.984-9.759,6.984a15.438,15.438,0,0,1-9.267-2.776l2.193-3.626a11.4,11.4,0,0,0,7.118,2.238c3.178,0,4.88-.94,4.88-2.6,0-1.209-1.209-1.88-3.76-2.238l-2.194-.313c-4.79-.672-7.386-2.821-7.386-6.313,0-4.253,3.492-6.85,8.909-6.85a16,16,0,0,1,8.73,2.239Zm22.372-1.209h-7.61v9.67c0,2.148.761,3.581,3.089,3.581a8.6,8.6,0,0,0,4.119-1.209l1.343,3.985a10.939,10.939,0,0,1-5.82,1.656c-5.506,0-7.431-2.955-7.431-7.924v-9.759h-4.343v-4.253H473v-6.491h4.7v6.491h7.61Zm16.113-4.79a9.946,9.946,0,0,1,3.313.582l-1.433,4.387a7.586,7.586,0,0,0-2.91-.537c-3.044,0-4.567,1.97-4.567,5.506v12h-4.656v-21.4h4.611v2.6A6.311,6.311,0,0,1,501.428,344.43Zm32.233,18.822a2.137,2.137,0,0,1,.843.167,2.19,2.19,0,0,1,.689.457,2.145,2.145,0,0,1,.464.679,2.093,2.093,0,0,1,0,1.652,2.161,2.161,0,0,1-.464.676,2.234,2.234,0,0,1-.689.459,2.1,2.1,0,0,1-.843.17,2.17,2.17,0,0,1-2.012-1.3,2.1,2.1,0,0,1,0-1.652,2.158,2.158,0,0,1,.462-.679,2.133,2.133,0,0,1,.692-.457,2.2,2.2,0,0,1,.858-.167Zm0,3.79a1.585,1.585,0,0,0,.642-.13,1.69,1.69,0,0,0,.522-.355,1.659,1.659,0,0,0-.522-2.7,1.6,1.6,0,0,0-.642-.128,1.673,1.673,0,0,0-.655.128,1.635,1.635,0,0,0-.53.352,1.66,1.66,0,0,0,1.185,2.835Zm.125-2.657a.9.9,0,0,1,.588.17.566.566,0,0,1,.206.462.538.538,0,0,1-.164.4.782.782,0,0,1-.467.2l.647.746h-.506l-.6-.741H533.3v.741h-.423v-1.978Zm-.491.371v.527h.486a.478.478,0,0,0,.266-.066.223.223,0,0,0,.1-.2.219.219,0,0,0-.1-.2.481.481,0,0,0-.266-.065Z" transform="translate(-312.82 -164.39)"/>
        <g id="Group_4" data-name="Group 4">
          <rect id="Rectangle_5" data-name="Rectangle 5" width="70.612" height="126.892" transform="translate(95.263 17.255)" fill="#7375cf"/>
          <path id="Path_16" data-name="Path 16" d="M437.5,341.517a80.559,80.559,0,0,1,30.822-63.446,80.7,80.7,0,1,0,0,126.891A80.56,80.56,0,0,1,437.5,341.517Z" transform="translate(-337.753 -260.816)" fill="#eb001b"/>
          <path id="Path_17" data-name="Path 17" d="M451.708,320.86v-2.6h1.047v-.529h-2.668v.529h1.048v2.6Zm5.179,0v-3.132h-.818l-.941,2.154-.941-2.154h-.818v3.132h.577V318.5l.882,2.037h.6l.882-2.042v2.368Z" transform="translate(-198.272 -190.153)" fill="#00a2e5"/>
          <path id="Path_18" data-name="Path 18" d="M526.565,341.517A80.7,80.7,0,0,1,396,404.963a80.711,80.711,0,0,0,0-126.892,80.7,80.7,0,0,1,130.565,63.446Z" transform="translate(-265.43 -260.816)" fill="#00a2e5"/>
        </g>
      </g>
    </g>
  </g>
</svg>
