<svg xmlns="http://www.w3.org/2000/svg" width="502.771" height="321" viewBox="0 0 502.771 321">
  <g id="Group_14" data-name="Group 14" transform="translate(-653.229 -102)">
    <path id="Path_11" data-name="Path 11" d="M457.746,0H45.025c-1.719,0-3.441,0-5.157.01-1.45.01-2.9.026-4.345.066a63.3,63.3,0,0,0-9.455.829A31.987,31.987,0,0,0,17.082,3.86,30.164,30.164,0,0,0,3.868,17.038,31.636,31.636,0,0,0,.908,26a62.377,62.377,0,0,0-.836,9.427C.033,36.874.017,38.318.007,39.76Q0,42.333,0,44.907V276.1c0,1.718,0,3.429.007,5.147.009,1.443.026,2.886.065,4.329A62.35,62.35,0,0,0,.908,295a31.628,31.628,0,0,0,2.96,8.966A30.162,30.162,0,0,0,17.082,317.14a31.859,31.859,0,0,0,8.987,2.959,63.785,63.785,0,0,0,9.455.829q2.171.049,4.345.059c1.716.013,3.438.013,5.157.013H457.746c1.716,0,3.438,0,5.153-.013q2.171-.01,4.348-.059a63.954,63.954,0,0,0,9.456-.829,31.887,31.887,0,0,0,8.984-2.959A30.161,30.161,0,0,0,498.9,303.962,31.44,31.44,0,0,0,501.86,295a62.339,62.339,0,0,0,.832-9.423q.059-2.165.066-4.329c.013-1.718.013-3.429.013-5.147V44.907c0-1.718,0-3.432-.013-5.146q-.01-2.164-.066-4.329A62.374,62.374,0,0,0,501.86,26a31.443,31.443,0,0,0-2.959-8.966A30.163,30.163,0,0,0,485.687,3.86,32.014,32.014,0,0,0,476.7.905a63.467,63.467,0,0,0-9.456-.829C465.794.036,464.347.02,462.9.01,461.184,0,459.462,0,457.746,0Z" transform="translate(653.229 102)" fill="#fff"/>
    <g id="mc_symbol" transform="translate(692.631 113.783)">
      <rect id="Rectangle_2" data-name="Rectangle 2" width="423.966" height="300.435" fill="none"/>
      <g id="Group_3" data-name="Group 3" transform="translate(49.836 50.071)">
        <rect id="Rectangle_3" data-name="Rectangle 3" width="87.627" height="157.468" transform="translate(118.218 21.412)" fill="#ff5f00"/>
        <path id="Path_12" data-name="Path 12" d="M461.494,370.146a99.971,99.971,0,0,1,38.249-78.734,100.145,100.145,0,1,0,0,157.468,99.973,99.973,0,0,1-38.249-78.734Z" transform="translate(-337.711 -269.999)" fill="#eb001b"/>
        <path id="Path_13" data-name="Path 13" d="M557.985,370.146a100.141,100.141,0,0,1-162.027,78.734,100.159,100.159,0,0,0,0-157.468,100.141,100.141,0,0,1,162.027,78.734Z" transform="translate(-233.927 -269.999)" fill="#f79e1b"/>
        <path id="Path_14" data-name="Path 14" d="M452.057,330.8v-3.224h1.3v-.657h-3.311v.657h1.3V330.8Zm6.427,0V326.91h-1.015l-1.167,2.674-1.167-2.674h-1.015V330.8h.717v-2.932l1.095,2.528h.743l1.095-2.534V330.8Z" transform="translate(-137.553 -168.595)" fill="#f79e1b"/>
      </g>
    </g>
  </g>
</svg>
