<svg xmlns="http://www.w3.org/2000/svg" xmlns:xlink="http://www.w3.org/1999/xlink" width="502.771" height="321" viewBox="0 0 502.771 321">
  <defs>
    <clipPath id="clip-path">
      <rect id="Rectangle_6" data-name="Rectangle 6" width="423.213" height="136.679" fill="none"/>
    </clipPath>
  </defs>
  <g id="Group_17" data-name="Group 17" transform="translate(-2338 -103.5)">
    <path id="Path_21" data-name="Path 21" d="M457.746,0H45.025c-1.719,0-3.441,0-5.157.01-1.45.01-2.9.026-4.345.066a63.3,63.3,0,0,0-9.455.829A31.987,31.987,0,0,0,17.082,3.86,30.164,30.164,0,0,0,3.868,17.038,31.636,31.636,0,0,0,.908,26a62.377,62.377,0,0,0-.836,9.427C.033,36.874.017,38.318.007,39.76Q0,42.333,0,44.907V276.1c0,1.718,0,3.429.007,5.147.009,1.443.026,2.886.065,4.329A62.35,62.35,0,0,0,.908,295a31.628,31.628,0,0,0,2.96,8.966A30.162,30.162,0,0,0,17.082,317.14a31.859,31.859,0,0,0,8.987,2.959,63.785,63.785,0,0,0,9.455.829q2.171.049,4.345.059c1.716.013,3.438.013,5.157.013H457.746c1.716,0,3.438,0,5.153-.013q2.171-.01,4.348-.059a63.954,63.954,0,0,0,9.456-.829,31.887,31.887,0,0,0,8.984-2.959A30.161,30.161,0,0,0,498.9,303.962,31.44,31.44,0,0,0,501.86,295a62.339,62.339,0,0,0,.832-9.423q.059-2.165.066-4.329c.013-1.718.013-3.429.013-5.147V44.907c0-1.718,0-3.432-.013-5.146q-.01-2.164-.066-4.329A62.374,62.374,0,0,0,501.86,26a31.443,31.443,0,0,0-2.959-8.966A30.163,30.163,0,0,0,485.687,3.86,32.014,32.014,0,0,0,476.7.905a63.467,63.467,0,0,0-9.456-.829C465.794.036,464.347.02,462.9.01,461.184,0,459.462,0,457.746,0Z" transform="translate(2338 103.5)" fill="#fff"/>
    <g id="Group_7" data-name="Group 7" transform="translate(2378.394 195.66)">
      <g id="Group_6" data-name="Group 6" clip-path="url(#clip-path)">
        <path id="Path_22" data-name="Path 22" d="M160.688,2.416l-55.407,132.2H69.131L41.865,29.113c-1.655-6.5-3.095-8.879-8.129-11.616C25.516,13.038,11.942,8.854,0,6.258L.811,2.416H59c7.417,0,14.085,4.937,15.769,13.479l14.4,76.5L124.759,2.414h35.929ZM302.326,91.451c.145-34.891-48.246-36.813-47.913-52.4.1-4.743,4.62-9.787,14.506-11.074,4.9-.641,18.4-1.131,33.714,5.916l6.007-28.033A91.885,91.885,0,0,0,276.652,0c-33.8,0-57.59,17.969-57.79,43.7C218.643,62.73,235.841,73.35,248.8,79.674c13.329,6.476,17.8,10.638,17.751,16.43-.095,8.868-10.631,12.782-20.477,12.937-17.189.265-27.163-4.651-35.113-8.347l-6.2,28.961c7.99,3.666,22.739,6.864,38.029,7.025,35.927,0,59.428-17.746,59.538-45.228m89.258,43.161h31.628L395.6,2.416H366.412a15.56,15.56,0,0,0-14.552,9.7l-51.316,122.5h35.909l7.128-19.745h43.875Zm-38.157-46.84,18-49.635,10.36,49.635ZM209.549,2.416l-28.278,132.2h-34.2l28.289-132.2Z" fill="#1434cb"/>
      </g>
    </g>
  </g>
</svg>
